<svg
        xmlns="http://www.w3.org/2000/svg"
        width="130"
        height="130"
        viewBox="0 0 126.7 165.384"
      >
        <g class="tree-1" transform="translate(-907 -476.341)">
          <path
            id="Path_1"
            data-name="Path 1"
            d="M48.722,69.469c0,9.352-7.581,12.7-16.933,12.7s-16.933-3.348-16.933-12.7l4.233-38.1c0-9.347,3.348-8.467,12.7-8.467s12.7-.88,12.7,8.467Z"
            transform="translate(938.562 559.556)"
            fill="#662113"
          />
          <path
            id="Path_2"
            data-name="Path 2"
            d="M125.041,75.964c-29.474-25.25-41.41-61.4-56.747-61.4s-27.273,36.156-56.747,61.4C-.838,86.576,5.062,92.715,22.042,91.483c15.135-1.091,29.291-4.524,46.252-4.524s31.122,3.433,46.248,4.524C131.527,92.715,137.423,86.571,125.041,75.964Z"
            transform="translate(902.056 528.922)"
            fill="#5c913b"
          />
          <path
            id="Path_3"
            data-name="Path 3"
            d="M106.2,65.265C83.55,44.5,70.822,14.751,59.026,14.751S34.507,44.5,11.856,65.265c-18,16.5,23.587,20.206,47.17,0C82.6,85.476,124.2,81.767,106.2,65.265Z"
            transform="translate(911.325 529.614)"
            fill="#3e721d"
          />
          <path
            id="Path_4"
            data-name="Path 4"
            d="M106.2,59.057C83.55,39.656,70.822,11.868,59.026,11.868S34.507,39.656,11.856,59.057c-18,15.416,23.587,18.876,47.17,0C82.6,77.938,124.2,74.473,106.2,59.057Z"
            transform="translate(911.325 518.996)"
            fill="#5c913b"
          />
          <path
            id="Path_5"
            data-name="Path 5"
            d="M86.957,47.98C69.279,32.831,59.342,11.135,50.131,11.135S30.988,32.826,13.305,47.98c-14.048,12.035,18.413,14.737,36.826,0C68.535,62.712,101.01,60.014,86.957,47.98Z"
            transform="translate(920.22 516.297)"
            fill="#3e721d"
          />
          <path
            id="Path_6"
            data-name="Path 6"
            d="M86.957,45.284C69.279,30.135,59.342,8.444,50.131,8.444S30.988,30.135,13.305,45.284c-14.048,12.04,18.413,14.737,36.826,0C68.535,60.021,101.01,57.323,86.957,45.284Z"
            transform="translate(920.22 506.386)"
            fill="#5c913b"
          />
          <path
            id="Path_7"
            data-name="Path 7"
            d="M73.746,37.3C59.477,25.08,51.455,7.571,44.024,7.571S28.575,25.08,14.3,37.3C2.96,47.019,29.165,49.2,44.024,37.3,58.887,49.2,85.092,47.019,73.746,37.3Z"
            transform="translate(926.323 503.171)"
            fill="#3e721d"
          />
          <path
            id="Path_8"
            data-name="Path 8"
            d="M73.746,35.276C59.477,23.054,51.455,5.545,44.024,5.545S28.575,23.054,14.3,35.276c-11.342,9.717,14.863,11.894,29.722,0C58.887,47.171,85.092,44.993,73.746,35.276Z"
            transform="translate(926.323 495.71)"
            fill="#5c913b"
          />
          <path
            id="Path_9"
            data-name="Path 9"
            d="M60.531,26.7C49.676,17.4,43.574,4.08,37.917,4.08S26.159,17.4,15.3,26.7c-8.63,7.394,11.309,9.052,22.618,0,11.3,9.052,31.249,7.394,22.613,0Z"
            transform="translate(932.434 490.314)"
            fill="#3e721d"
          />
          <path
            id="Path_10"
            data-name="Path 10"
            d="M60.531,25.627C49.676,16.323,43.574,3,37.917,3S26.159,16.323,15.3,25.627c-8.63,7.394,11.309,9.052,22.618,0C49.222,34.675,69.166,33.017,60.531,25.627Z"
            transform="translate(932.434 486.337)"
            fill="#5c913b"
          />
        </g>
        <g class="topping" transform="translate(-907 -476.341)">
          <circle
            id="Ellipse_1"
            data-name="Ellipse 1"
            cx="7.024"
            cy="7.024"
            r="7.024"
            transform="translate(954.092 524.655)"
            fill="#ffcc4d"
          />
          <circle
            id="Ellipse_2"
            data-name="Ellipse 2"
            cx="9.366"
            cy="9.366"
            r="9.366"
            transform="translate(968.141 582.994)"
            fill="#ffcc4d"
          />
          <circle
            id="Ellipse_3"
            data-name="Ellipse 3"
            cx="11.707"
            cy="11.707"
            r="11.707"
            transform="translate(977.507 536.165)"
            fill="#dd2e44"
          />
          <circle
            id="Ellipse_4"
            data-name="Ellipse 4"
            cx="9.366"
            cy="9.366"
            r="9.366"
            transform="translate(921.313 587.676)"
            fill="#dd2e44"
          />
          <circle
            id="Ellipse_5"
            data-name="Ellipse 5"
            cx="9.366"
            cy="9.366"
            r="9.366"
            transform="translate(940.044 554.897)"
            fill="#a6d388"
          />
          <circle
            id="Ellipse_6"
            data-name="Ellipse 6"
            cx="9.366"
            cy="9.366"
            r="9.366"
            transform="translate(996.238 573.628)"
            fill="#a6d388"
          />
          <path
            id="Path_11"
            data-name="Path 11"
            d="M35.505,7.034a6.257,6.257,0,0,0,3.826,2.852l6.458,1.26c1.428.281,1.765,1.358.745,2.4l-4.6,4.7A6.234,6.234,0,0,0,40.4,22.764l.8,6.528c.178,1.447-.745,2.1-2.051,1.452l-5.886-2.927a6.274,6.274,0,0,0-4.776-.061L22.52,30.537c-1.321.609-2.229-.066-2.014-1.508l.96-6.509a6.283,6.283,0,0,0-1.414-4.556l-4.491-4.809c-.993-1.063-.632-2.14.805-2.379l6.486-1.1a6.227,6.227,0,0,0,3.9-2.754l3.189-5.755c.707-1.274,1.845-1.26,2.515.028l3.053,5.835Z"
            transform="translate(939.093 476.117)"
            fill="#ffac33"
          />
        </g>
      </svg>