<?xml version="1.0" encoding="iso-8859-1"?>
<!-- Uploaded to: SVG Repo, www.svgrepo.com, Generator: SVG Repo Mixer Tools -->
<svg        width="140"
        height="160" version="1.1" id="Layer_1" xmlns="http://www.w3.org/2000/svg" xmlns:xlink="http://www.w3.org/1999/xlink" 
	 viewBox="0 0 512.007 512.007" xml:space="preserve">
<g transform="translate(-1)">
	<g>
		<path style="fill:#A8ADB2;" d="M415.901,70.624c-4.873,0-8.828-3.955-8.828-8.828c0-19.474,15.837-35.31,35.31-35.31
			c9.737,0,17.655-7.918,17.655-17.655c0-4.873,3.955-8.828,8.828-8.828s8.828,3.955,8.828,8.828c0,19.474-15.837,35.31-35.31,35.31
			c-9.737,0-17.655,7.918-17.655,17.655C424.729,66.669,420.774,70.624,415.901,70.624"/>
		<path style="fill:#A8ADB2;" d="M389.418,44.141c-4.873,0-8.828-3.955-8.828-8.828c0-19.474,15.837-35.31,35.31-35.31
			c4.873,0,8.828,3.955,8.828,8.828s-3.955,8.828-8.828,8.828c-9.737,0-17.655,7.918-17.655,17.655
			C398.246,40.186,394.291,44.141,389.418,44.141"/>
	</g>
	<path style="fill:#E4E5E6;" d="M500.076,247.23L309.471,56.827c-28.99-28.963-75.961-28.981-104.978-0.035L44.591,216.28
		C16.669,244.564,1,282.708,1,322.449v68.882c0,14.345,10.743,27.198,25.062,27.948c15.272,0.794,27.904-11.352,27.904-26.447
		v-44.138c0,15.095,12.641,27.242,27.913,26.447c14.318-0.75,25.053-13.603,25.053-27.948v-33.307
		c0-22.607,8.96-44.288,24.92-60.292l87.243-87.552c20.913-20.983,54.89-20.966,75.776,0.035l142.786,143.572
		c17.24,17.24,45.18,17.24,62.42,0C517.317,292.409,517.317,264.47,500.076,247.23"/>
	<g>
		<path style="fill:#BE3A2B;" d="M450.266,61.796h-68.732c-8.792,0-16.949,3.805-18.361,12.482
			c-0.998,6.162,1.192,10.752,5.182,14.583c7.309,7.036,12.235,15.06,12.235,25.203v13.806l70.621,70.55v-84.356
			c0-10.143,4.926-19.271,12.244-26.306c3.981-3.831,6.17-7.318,5.173-13.48C467.215,65.601,459.058,61.796,450.266,61.796"/>
		<path style="fill:#BE3A2B;" d="M460.03,321.65c-2.322-0.477-4.599-1.183-6.841-2.03c-0.839-0.318-1.651-0.715-2.472-1.086
			c-1.624-0.733-3.204-1.562-4.749-2.498c-0.715-0.433-1.439-0.856-2.136-1.342c-2.163-1.483-4.255-3.116-6.179-5.041
			L294.875,166.081c-20.886-21.001-54.872-21.018-75.776-0.035l-87.252,87.543c-15.951,16.013-24.911,37.694-24.911,60.301v33.306
			c0,14.336-10.734,27.189-25.062,27.939c-15.272,0.803-27.904-11.343-27.904-26.439v44.138v92.69h406.069V321.65H460.03"/>
	</g>
	<polygon style="fill:#212F3E;" points="142.246,397.245 248.177,397.245 248.177,291.314 142.246,291.314 	"/>
	<g>
		<polygon style="fill:#F0C419;" points="274.66,485.521 380.591,485.521 380.591,291.314 274.66,291.314 		"/>
		<polygon style="fill:#F0C419;" points="186.384,397.245 204.039,397.245 204.039,291.314 186.384,291.314 		"/>
		<polygon style="fill:#F0C419;" points="142.246,353.107 248.177,353.107 248.177,335.452 142.246,335.452 		"/>
	</g>
	<path style="fill:#212F3E;" d="M354.108,414.9h-8.828c-4.873,0-8.828-3.955-8.828-8.828s3.955-8.828,8.828-8.828h8.828
		c4.873,0,8.828,3.955,8.828,8.828S358.981,414.9,354.108,414.9"/>
	<polygon style="fill:#E4E5E6;" points="9.832,512.003 504.177,512.003 504.177,485.521 9.832,485.521 	"/>
	<path style="fill:#212F3E;" d="M354.108,344.279c0,14.627-11.855,26.483-26.483,26.483s-26.483-11.855-26.483-26.483
		s11.855-26.483,26.483-26.483S354.108,329.652,354.108,344.279"/>
	<path style="fill:#A8ADB2;" d="M53.97,317.796c-4.873,0-8.828-3.955-8.828-8.828v-13.241c0-16.102,7.124-29.608,21.16-40.157
		c3.893-2.94,9.437-2.145,12.359,1.748c2.931,3.902,2.145,9.437-1.757,12.359c-9.622,7.239-14.106,15.51-14.106,26.05v13.241
		C62.798,313.842,58.843,317.796,53.97,317.796"/>
</g>
</svg>