<?xml version="1.0" encoding="iso-8859-1"?>
<!-- Uploaded to: SVG Repo, www.svgrepo.com, Generator: SVG Repo Mixer Tools -->
<svg       width="110"
        height="130" version="1.1" id="Layer_1" xmlns="http://www.w3.org/2000/svg" xmlns:xlink="http://www.w3.org/1999/xlink" 
	 viewBox="0 0 512.003 512.003" xml:space="preserve">
<g>
	<g>
		<path style="fill:#71C084;" d="M205.863,218.001l-0.238-0.265L205.863,218.001"/>
		<path style="fill:#71C084;" d="M172.139,0c-28.266,28.266-68.838,28.266-97.103,0c7.609,30.738-29.378,59.816-61.793,52.966
			c28.266,28.266,28.266,77.665,0,105.931c39.971,0,70.621,39.477,70.621,79.448h20.25c7.601-25.521,31.214-44.138,59.198-44.138
			c12.085,0,23.322,3.522,32.839,9.516c0.018,0.026,0.035,0.053,0.044,0.079c-4.052-8.227-6.4-17.452-6.4-27.251
			c0-24.673,14.504-45.912,35.416-55.817c1.068-28.407,17.549-50.229,17.549-50.229C202.789,70.506,172.139,39.971,172.139,0"/>
	</g>
	<g>
		<path style="fill:#4C8056;" d="M498.76,211.862c-39.971,0-70.621-30.649-70.621-70.621c-28.266,28.266-68.838,28.266-97.103,0
			c0,0-7.362,24.611-17.673,34.922c0,0.132,0.018,0.256,0.018,0.388c0,30.014-21.407,55.014-49.779,60.601
			c0.026,0,0.044,0,0.071-0.009c19.103,10.514,32.053,30.817,32.053,54.166c0,8.183-1.624,15.987-4.52,23.137l0.035,0.009
			c27.524,10.293,30.967,56.302,30.967,56.302c28.266-28.266,77.665-28.266,105.931,0c0-39.971,30.649-70.621,70.621-70.621
			C471.642,283.78,470.997,229.941,498.76,211.862"/>
		<path style="fill:#4C8056;" d="M269.995,341.489l-0.071-0.018c-10.143,7.292-22.546,11.635-35.99,11.635
			c-25.291,0-47.007-15.219-56.567-36.979c-4.529,1.051-9.216,1.668-14.054,1.668c-18.838,0-35.672-8.457-47.007-21.751
			l-0.071-0.018c-15.272,44.941-67.681,48.252-67.681,48.252c28.257,28.257,28.257,68.837,0,97.103
			c39.971,0,70.621,30.649,70.621,70.621c16.358-27.118,61.202-27.763,79.281,0c0-39.971,30.817-70.621,70.788-70.621
			C240.979,413.116,241.729,369.755,269.995,341.489"/>
		<path style="fill:#4C8056;" d="M196.156,212.551c-3.699,0-7.15-2.348-8.377-6.047c-0.265-0.786-27.136-79.228-98.586-110.124
			c-4.476-1.942-6.532-7.133-4.608-11.608c1.933-4.458,7.124-6.541,11.608-4.599c78.866,34.101,107.176,117.248,108.341,120.779
			c1.536,4.626-0.971,9.604-5.597,11.14C198.019,212.401,197.075,212.551,196.156,212.551"/>
	</g>
	<g>
		<path style="fill:#71C084;" d="M352.354,268.733c-44.985,0-89.847-22.272-92.672-23.711c-4.343-2.198-6.091-7.495-3.893-11.847
			c2.198-4.352,7.495-6.109,11.847-3.911c0.945,0.468,94.243,46.742,136.492,2.948c3.39-3.496,8.978-3.61,12.482-0.221
			c3.513,3.39,3.61,8.969,0.23,12.482C399.264,262.677,375.792,268.733,352.354,268.733"/>
		<path style="fill:#71C084;" d="M157.872,442.698c-3.037,0-5.994-1.571-7.627-4.378c-34.092-58.359,17.982-124.893,20.215-127.691
			c3.037-3.814,8.563-4.44,12.394-1.404c3.814,3.028,4.449,8.58,1.421,12.394c-0.468,0.6-46.742,59.931-18.794,107.803
			c2.463,4.211,1.042,9.613-3.169,12.067C160.918,442.31,159.382,442.698,157.872,442.698"/>
	</g>
	<path style="fill:#BE3A2B;" d="M196.152,203.722c-9.525-5.994-20.762-9.516-32.839-9.516c-34.127,0-61.793,27.666-61.793,61.793
		c0,34.127,27.666,61.793,61.793,61.793s61.793-27.666,61.793-61.793c0-9.763-2.33-18.962-6.356-27.171
		C209.067,222.737,201.228,214.05,196.152,203.722"/>
	<path style="fill:#D14A41;" d="M313.381,176.552c0,34.127-27.666,61.793-61.793,61.793s-61.793-27.666-61.793-61.793
		s27.666-61.793,61.793-61.793S313.381,142.424,313.381,176.552"/>
	<path style="fill:#F97B76;" d="M269.243,194.207c-22.113,0-35.31-13.241-35.31-35.434c0-4.873,3.946-8.828,8.828-8.828
		s8.828,3.955,8.828,8.828c0,12.297,5.447,17.779,17.655,17.779c4.882,0,8.828,3.946,8.828,8.828
		C278.07,190.261,274.124,194.207,269.243,194.207"/>
	<path style="fill:#922C25;" d="M263.668,237.147c-3.911,0.777-7.945,1.201-12.085,1.201c-10.778,0-20.904-2.781-29.731-7.636
		c-0.706,0.141-1.351,0.433-2.048,0.6c3.328,7.574,5.297,15.881,5.297,24.691c0,29.281-20.392,53.751-47.74,60.125
		c9.569,21.76,31.276,36.979,56.567,36.979c34.127,0,61.793-27.666,61.793-61.793C295.721,267.964,282.771,247.661,263.668,237.147"
		/>
</g>
</svg>